<svg width="38" height="38" viewBox="0 0 38 38" fill="none" xmlns="http://www.w3.org/2000/svg">
<path d="M24.8742 13.1258C24.727 12.9774 24.5519 12.8596 24.3589 12.7792C24.166 12.6989 23.959 12.6575 23.75 12.6575C23.541 12.6575 23.3341 12.6989 23.1411 12.7792C22.9482 12.8596 22.773 12.9774 22.6259 13.1258L19 16.7675L15.3742 13.1258C15.076 12.8277 14.6717 12.6602 14.25 12.6602C13.8284 12.6602 13.424 12.8277 13.1259 13.1258C12.8277 13.424 12.6602 13.8283 12.6602 14.25C12.6602 14.6716 12.8277 15.076 13.1259 15.3742L16.7675 19L13.1259 22.6258C12.9775 22.773 12.8597 22.9481 12.7793 23.1411C12.6989 23.334 12.6575 23.541 12.6575 23.75C12.6575 23.959 12.6989 24.166 12.7793 24.3589C12.8597 24.5518 12.9775 24.727 13.1259 24.8742C13.273 25.0226 13.4482 25.1404 13.6411 25.2207C13.8341 25.3011 14.041 25.3425 14.25 25.3425C14.459 25.3425 14.666 25.3011 14.8589 25.2207C15.0519 25.1404 15.227 25.0226 15.3742 24.8742L19 21.2325L22.6259 24.8742C22.773 25.0226 22.9482 25.1404 23.1411 25.2207C23.3341 25.3011 23.541 25.3425 23.75 25.3425C23.959 25.3425 24.166 25.3011 24.3589 25.2207C24.5519 25.1404 24.727 25.0226 24.8742 24.8742C25.0226 24.727 25.1404 24.5518 25.2208 24.3589C25.3012 24.166 25.3425 23.959 25.3425 23.75C25.3425 23.541 25.3012 23.334 25.2208 23.1411C25.1404 22.9481 25.0226 22.773 24.8742 22.6258L21.2325 19L24.8742 15.3742C25.0226 15.227 25.1404 15.0518 25.2208 14.8589C25.3012 14.666 25.3425 14.459 25.3425 14.25C25.3425 14.041 25.3012 13.834 25.2208 13.6411C25.1404 13.4481 25.0226 13.273 24.8742 13.1258ZM30.0834 3.16666H7.91669C6.65691 3.16666 5.44873 3.6671 4.55793 4.5579C3.66713 5.4487 3.16669 6.65688 3.16669 7.91666V30.0833C3.16669 31.3431 3.66713 32.5513 4.55793 33.4421C5.44873 34.3329 6.65691 34.8333 7.91669 34.8333H30.0834C31.3431 34.8333 32.5513 34.3329 33.4421 33.4421C34.3329 32.5513 34.8334 31.3431 34.8334 30.0833V7.91666C34.8334 6.65688 34.3329 5.4487 33.4421 4.5579C32.5513 3.6671 31.3431 3.16666 30.0834 3.16666ZM31.6667 30.0833C31.6667 30.5033 31.4999 30.906 31.2029 31.2029C30.906 31.4998 30.5033 31.6667 30.0834 31.6667H7.91669C7.49676 31.6667 7.09403 31.4998 6.7971 31.2029C6.50017 30.906 6.33335 30.5033 6.33335 30.0833V7.91666C6.33335 7.49673 6.50017 7.094 6.7971 6.79707C7.09403 6.50014 7.49676 6.33332 7.91669 6.33332H30.0834C30.5033 6.33332 30.906 6.50014 31.2029 6.79707C31.4999 7.094 31.6667 7.49673 31.6667 7.91666V30.0833Z" fill="#696969"/>
</svg>
