<svg width="64" height="64" viewBox="0 0 64 64" fill="none" xmlns="http://www.w3.org/2000/svg">
<path d="M41.8933 33.8933C44.5077 31.8364 46.416 29.0158 47.3526 25.8238C48.2893 22.6319 48.2078 19.2274 47.1194 16.0839C46.0311 12.9405 43.99 10.2144 41.2802 8.28495C38.5704 6.35552 35.3265 5.31868 32 5.31868C28.6735 5.31868 25.4296 6.35552 22.7198 8.28495C20.01 10.2144 17.9689 12.9405 16.8806 16.0839C15.7922 19.2274 15.7107 22.6319 16.6474 25.8238C17.584 29.0158 19.4923 31.8364 22.1067 33.8933C17.6269 35.6881 13.7181 38.6649 10.797 42.5064C7.87599 46.348 6.05216 50.9101 5.51999 55.7067C5.48147 56.0569 5.5123 56.4112 5.61073 56.7495C5.70915 57.0878 5.87324 57.4033 6.09362 57.6782C6.53871 58.2333 7.18608 58.5889 7.89332 58.6667C8.60057 58.7445 9.30975 58.5381 9.86486 58.093C10.42 57.6479 10.7755 57.0006 10.8533 56.2933C11.4389 51.0805 13.9245 46.2662 17.8352 42.7701C21.746 39.2741 26.8077 37.3414 32.0533 37.3414C37.2989 37.3414 42.3607 39.2741 46.2714 42.7701C50.1822 46.2662 52.6678 51.0805 53.2533 56.2933C53.3258 56.9486 53.6385 57.5537 54.1309 57.992C54.6234 58.4303 55.2607 58.6707 55.92 58.6667H56.2133C56.9124 58.5862 57.5513 58.2328 57.9908 57.6833C58.4304 57.1339 58.635 56.433 58.56 55.7333C58.0253 50.9232 56.1917 46.3493 53.2556 42.5019C50.3195 38.6545 46.3918 35.6786 41.8933 33.8933ZM32 32C29.8903 32 27.828 31.3744 26.0739 30.2023C24.3198 29.0303 22.9526 27.3644 22.1453 25.4153C21.3379 23.4662 21.1267 21.3215 21.5383 19.2524C21.9499 17.1832 22.9658 15.2826 24.4575 13.7909C25.9493 12.2991 27.8499 11.2832 29.919 10.8716C31.9882 10.4601 34.1329 10.6713 36.082 11.4786C38.031 12.286 39.6969 13.6531 40.869 15.4073C42.0411 17.1614 42.6667 19.2237 42.6667 21.3333C42.6667 24.1623 41.5429 26.8754 39.5425 28.8758C37.5421 30.8762 34.829 32 32 32Z" fill="#696969"/>
</svg>
