<?xml version="1.0" standalone="no"?>
<!DOCTYPE svg PUBLIC "-//W3C//DTD SVG 20010904//EN"
 "http://www.w3.org/TR/2001/REC-SVG-20010904/DTD/svg10.dtd">
<svg version="1.0" xmlns="http://www.w3.org/2000/svg"
 width="170.000000pt" height="170.000000pt" viewBox="0 0 170.000000 170.000000"
 preserveAspectRatio="xMidYMid meet">

<g transform="translate(0.000000,170.000000) scale(0.100000,-0.100000)"
fill="#000000" stroke="none">
<path d="M0 850 l0 -850 850 0 850 0 0 850 0 850 -850 0 -850 0 0 -850z m1000
230 c0 -71 2 -130 4 -130 2 0 20 7 39 15 50 21 143 19 193 -4 22 -10 57 -35
77 -56 107 -110 84 -299 -47 -379 -61 -38 -159 -47 -221 -22 -27 11 -41 13
-45 6 -4 -7 -28 -10 -56 -8 l-49 3 -3 353 -2 352 55 0 55 0 0 -130z m-335
-119 c50 -23 109 -84 130 -133 l15 -38 -60 0 c-50 0 -61 3 -70 21 -30 55 -127
76 -187 39 -86 -52 -82 -189 6 -235 61 -31 152 -8 181 44 9 17 20 21 65 21 47
0 55 -3 55 -19 0 -39 -63 -114 -120 -144 -48 -25 -63 -28 -126 -25 -58 3 -80
9 -120 33 -131 81 -154 270 -47 380 20 21 55 46 77 56 54 25 148 25 201 0z"/>
<path d="M1063 850 c-115 -70 -63 -250 72 -250 76 0 135 59 135 135 0 106
-116 171 -207 115z"/>
</g>
</svg>
